<?xml version="1.0" encoding="UTF-8" standalone="no"?>
<svg
   xmlns:dc="http://purl.org/dc/elements/1.1/"
   xmlns:cc="http://creativecommons.org/ns#"
   xmlns:rdf="http://www.w3.org/1999/02/22-rdf-syntax-ns#"
   xmlns:svg="http://www.w3.org/2000/svg"
   xmlns="http://www.w3.org/2000/svg"
   xmlns:sodipodi="http://sodipodi.sourceforge.net/DTD/sodipodi-0.dtd"
   xmlns:inkscape="http://www.inkscape.org/namespaces/inkscape"
   viewBox="52 42 88 66"
   version="1.1"
   id="svg8478"
   sodipodi:docname="Gmail_icon_(2020).svg"
   inkscape:version="0.92.4 (5da689c313, 2019-01-14)">
  <metadata
     id="metadata8484">
    <rdf:RDF>
      <cc:Work
         rdf:about="">
        <dc:format>image/svg+xml</dc:format>
        <dc:type
           rdf:resource="http://purl.org/dc/dcmitype/StillImage" />
      </cc:Work>
    </rdf:RDF>
  </metadata>
  <defs
     id="defs8482" />
  <sodipodi:namedview
     pagecolor="#ffffff"
     bordercolor="#666666"
     borderopacity="1"
     objecttolerance="10"
     gridtolerance="10"
     guidetolerance="10"
     inkscape:pageopacity="0"
     inkscape:pageshadow="2"
     inkscape:window-width="1920"
     inkscape:window-height="1001"
     id="namedview8480"
     showgrid="false"
     inkscape:zoom="8.0138769"
     inkscape:cx="28.616345"
     inkscape:cy="28.297969"
     inkscape:window-x="-9"
     inkscape:window-y="-9"
     inkscape:window-maximized="1"
     inkscape:current-layer="svg8478" />
  <path
     d="M58 108h14V74L52 59v43c0 3.32 2.69 6 6 6"
     id="path8468"
     style="fill:#000000;fill-opacity:1"
     fill="#4285f4" />
  <path
     d="M120 108h14c3.32 0 6-2.69 6-6V59l-20 15"
     id="path8470"
     style="fill:#000000;fill-opacity:1"
     fill="#34a853" />
  <path
     d="M120 48v26l20-15v-8c0-7.42-8.47-11.65-14.4-7.2"
     id="path8472"
     style="fill:#000000;fill-opacity:1"
     fill="#fbbc04" />
  <path
     d="M72 74V48l24 18 24-18v26L96 92"
     id="path8474"
     style="fill:#000000;fill-opacity:1"
     fill="#ea4335" />
  <path
     d="M52 51v8l20 15V48l-5.6-4.2c-5.94-4.45-14.4-.22-14.4 7.2"
     id="path8476"
     style="fill:#000000;fill-opacity:1"
     fill="#c5221f" />
</svg>
